<svg xmlns="http://www.w3.org/2000/svg" width="128" height="128.002" viewBox="0 0 128 128.002"><path d="M240,144h-5.336V133.336A5.328,5.328,0,0,0,229.336,128H224a5.34,5.34,0,0,0-5.336,5.336V144H165.328V133.336A5.323,5.323,0,0,0,160,128h-5.336a5.34,5.34,0,0,0-5.336,5.336V144H144a16.016,16.016,0,0,0-16,16v80a16.016,16.016,0,0,0,16,16h96a16.016,16.016,0,0,0,16-16V160A16.016,16.016,0,0,0,240,144Zm0,101.338H144A5.34,5.34,0,0,1,138.664,240V176.217H245.328V240A5.328,5.328,0,0,1,240,245.339Z" transform="translate(-128 -128)" fill="#4adaa4"/><g transform="translate(37.331 55.999)"><path d="M10.339,52.621A4.008,4.008,0,0,1,8.7,48.706L11.051,34.3,1.131,24.121A4,4,0,0,1,3.4,17.37L16.946,15.3l6.1-12.987A3.992,3.992,0,0,1,30.278,2.3l6.093,13,13.556,2.073a4,4,0,0,1,2.264,6.75L42.27,34.294l2.352,14.4a4,4,0,0,1-5.879,4.143L26.67,46.17l-12.09,6.683a4.038,4.038,0,0,1-1.937.5A4,4,0,0,1,10.339,52.621ZM24.731,45.1l1.939-3.506Z" transform="translate(0 0)" fill="#00d18d" stroke="rgba(0,0,0,0)" stroke-miterlimit="10" stroke-width="1"/></g></svg>