<svg xmlns="http://www.w3.org/2000/svg"><path d="M177.534,128H137.373A9.378,9.378,0,0,0,128,137.374v24.1a9.383,9.383,0,0,0,9.373,9.374h40.161a9.383,9.383,0,0,0,9.374-9.374v-24.1A9.389,9.389,0,0,0,177.534,128Z" transform="translate(-128 -128)" fill="#a4b6fc"/><path d="M177.534,234.672H137.373A9.377,9.377,0,0,0,128,244.038v56.226a9.378,9.378,0,0,0,9.373,9.374h40.161a9.383,9.383,0,0,0,9.374-9.374V244.038A9.387,9.387,0,0,0,177.534,234.672Z" transform="translate(-128 -181.645)" fill="#365df0"/><path d="M316.19,298.672H276.029a9.383,9.383,0,0,0-9.373,9.374v24.1a9.383,9.383,0,0,0,9.373,9.374H316.19a9.39,9.39,0,0,0,9.374-9.382v-24.1A9.377,9.377,0,0,0,316.19,298.672Z" transform="translate(-197.564 -213.516)" fill="#a4b6fc"/><path d="M316.19,128H276.029a9.383,9.383,0,0,0-9.373,9.374V193.6a9.383,9.383,0,0,0,9.373,9.374H316.19a9.383,9.383,0,0,0,9.374-9.374V137.374A9.378,9.378,0,0,0,316.19,128Z" transform="translate(-197.564 -128)" fill="#365df0"/></svg>